<?xml version="1.0" encoding="utf-8"?>
<!-- Generator: Adobe Illustrator 16.0.0, SVG Export Plug-In . SVG Version: 6.00 Build 0)  -->
<!DOCTYPE svg PUBLIC "-//W3C//DTD SVG 1.1//EN" "http://www.w3.org/Graphics/SVG/1.1/DTD/svg11.dtd">
<svg version="1.1" id="圖層_1" xmlns="http://www.w3.org/2000/svg" xmlns:xlink="http://www.w3.org/1999/xlink" x="0px" y="0px"
	 width="205px" height="50px" viewBox="18.167 66.667 205 50" enable-background="new 18.167 66.667 205 50" xml:space="preserve">
<g>
	<path d="M23.771,89.294l0.271-0.217c0,0,3.808-2.557,14.956-11.912l0.11-0.107l0.271-0.219l0.109-0.107l0.598,0.707l2.557,3.209
		c-10.986,8.758-13.217,10.498-13.217,10.498V91.2h-0.055c-0.055,0.055-0.108,0.162-0.108,0.271c0,0.107,0.054,0.219,0.108,0.219
		c0,0,2.774,1.902,15.338,11.691l0.979,0.764l-0.326,0.381c-0.054,0.057-0.109,0.057-0.109,0.107l-2.883,3.264
		C27.36,96.476,25.293,94.843,25.293,94.843h-0.055c-0.054-0.055-0.108-0.055-0.217-0.055c-0.055,0-0.108,0-0.163,0.055h-0.054
		c-0.327,0.271-0.871,0.652-1.197,0.979l-0.163,0.164c-0.108,0.055-0.218,0.217-0.218,0.488c0,0,0,1.85,0,10.553h-5.059V77.331
		h5.059c0,8.756,0,11.527,0,11.527l0.055,0.164c0.108,0.107,0.108,0.326,0.271,0.326C23.662,89.351,23.716,89.351,23.771,89.294z
		 M75.167,94.569c0,2.178-0.217,4.461-1.687,5.93c-0.815,0.814-2.72,2.176-6.363,2.176c-2.394,0-4.351-0.762-5.874-2.34
		c-1.196-1.195-1.577-2.502-1.577-5.547V77.331h-5.059v18.328c0,8.645,6.689,11.748,12.4,11.748c8.432,0,13.218-4.461,13.218-12.129
		V77.331h-0.108h-4.95V94.569z M122.377,77.331h0.162v29.693h-5.059V86.249c0-0.164-0.164-0.326-0.326-0.326
		c-0.109,0-0.164,0.055-0.217,0.107l-0.109,0.164c-2.339,2.773-8.104,9.463-8.158,9.518l-0.055,0.057
		c-0.163,0.162-0.326,0.217-0.544,0.217s-0.437-0.055-0.599-0.217l-0.055-0.057c-0.054-0.055-5.602-7.016-8.159-9.572l-0.107-0.107
		c-0.055-0.055-0.109-0.055-0.218-0.055c-0.164,0-0.272,0.107-0.272,0.271v0.053v20.723H93.55V77.331h4.569l0.054,0.053
		c0.436,0.436,7.561,9.139,9.572,11.15l0.056,0.055c0.107,0.055,0.162,0.109,0.271,0.109c0.054,0,0.163-0.055,0.218-0.109
		c1.794-2.121,9.354-10.77,9.683-11.205v-0.053H122.377z M183.02,90.382v-0.979l-0.109-0.219l-0.055-0.326l-0.109-0.324
		l-0.053-0.764l-0.109-0.217l-0.053-0.164l-0.109-0.271v-0.215l-0.16-0.326v-0.219l-0.059-0.326l-0.055-0.326l-0.055-0.164
		l-0.107-0.271l-0.105-0.488l-0.164-0.219l-0.057-0.162l-0.381-0.924l-0.164-0.219l-0.488-0.926l-0.383-0.869l-0.324-0.871
		l-0.105-0.381l-0.49-0.762l-0.107-0.162l-0.219-0.436l-0.6-0.6l-0.217-0.381l-0.381-0.381l-0.164-0.326l-0.16-0.164l-0.221-0.27
		l-0.219-0.164l-0.27-0.217l-0.438-0.383l-0.219-0.381l-0.379-0.436l-0.438-0.381l-0.545-0.381l-0.324-0.107l-0.271-0.219
		l-0.326-0.219l-0.164-0.271l-0.217-0.162l-0.217-0.164l-0.543-0.326l-0.273-0.164l-0.488-0.379l-0.98-0.436l-0.762-0.6
		l-0.381-0.164l-0.381-0.217l-0.271-0.164h-0.813l-0.164-0.107l-0.221-0.107l-0.436-0.055l-0.271-0.219l-0.436-0.162l-0.381-0.057
		l-0.438-0.217h-0.326l-1.469-0.381l-0.381-0.109h-0.545l-0.162-0.107l-0.164-0.055h-0.869l-0.217-0.162h-0.6l-0.436-0.16h-0.707
		l-0.324-0.057l-0.709-0.055l-0.381-0.055h-1.355l-0.383,0.055h-0.709l-0.324,0.109h-0.814l-0.381,0.053h-0.652l-0.271,0.055
		l-0.326,0.057H153l-0.49,0.107l-0.164,0.164h-0.055v-0.381l-0.105-0.27l-0.221-0.219l-0.6-0.271l-0.217-0.057l-0.326-0.053h-0.926
		l-0.543,0.107l-0.107,0.055l-0.381,0.164l-0.652,0.162l-0.871,0.219h-0.705l-0.381,0.109l-0.547,0.162l-0.27,0.217l-0.381,0.217
		l-0.602,0.273l-0.488,0.107l-0.326,0.271l-0.438,0.055l-0.217,0.109l-0.596,0.271l-0.871,0.813l-0.219,0.273l-0.221,0.162
		l-0.324,0.381l-0.486,0.381l-0.219,0.271l-0.221,0.217l-0.271,0.49l-0.219,0.217l-0.217,0.277l-0.383,0.27l-0.27,0.326
		l-0.271,0.271l-0.271,0.49l-0.162,0.221l-0.107,0.164v0.217l-0.055,0.164l-0.219,0.162l-0.109,0.271l-0.324,0.271l-0.271,0.436
		l-0.107,0.271l-0.107,0.217l-0.107,0.271l-0.381,0.707l-0.164,0.219l-0.162,0.543l-0.381,0.49l-0.107,0.217l-0.219,0.6
		l-0.219,0.488l-0.055,0.979l-0.107,0.383l-0.055,0.271v0.217l-0.164,0.217l-0.162,0.436l-0.057,0.438l-0.162,0.326v0.488
		l-0.055,0.271v0.381l-0.271,1.09v0.598l-0.055,0.271l-0.055,0.871l-0.055,0.271v0.6l-0.109,0.379v3.047l0.109,0.271v0.383
		l0.055,0.271v0.326l0.162,0.705v0.6l0.164,0.545v0.381l0.055,0.326l0.055,0.326l0.055,0.381l0.271,0.707l0.109,0.436l0.164,0.271
		l0.053,0.324l0.109,0.219l0.27,0.6l0.109,0.271l0.107,0.217l0.055,0.326l0.219,0.27l0.107,0.381l0.217,0.49l0.271,0.324l0.219,0.49
		l0.217,0.27l0.219,0.381l0.219,0.271l0.438,0.652l0.271,0.271l0.162,0.271l0.162,0.221l0.219,0.27l0.438,0.488l0.217,0.273
		l0.219,0.27l0.383,0.381l0.217,0.162l0.162,0.164l0.221,0.27l0.271,0.219l0.488,0.488l0.271,0.219l0.436,0.381l0.602,0.49
		l0.705,0.486l0.381,0.221l0.707,0.486l0.438,0.164l0.271,0.217l0.65,0.438l0.164,0.219l0.271,0.055l0.219,0.164l0.543,0.271
		l0.381,0.164l0.271,0.219l0.6,0.217l0.217,0.164l0.545,0.271l0.219,0.164l0.271,0.055l0.162,0.107l0.271,0.055l0.219,0.164
		l0.545,0.219l0.49,0.217l0.271,0.164l0.381,0.057l0.217,0.105l0.598,0.271h0.438l0.164,0.107l0.6,0.271l1.305,0.328l0.438,0.105
		l0.271,0.055h0.6l0.324,0.164h0.49l0.381,0.107h1.359l0.381,0.055h1.195h0.705l0.271-0.055h0.49l0.381-0.107h1.357l0.979-0.219
		h0.326l0.436-0.162h0.49l0.27-0.057l0.707-0.217h0.6l0.217-0.107l0.326-0.057l0.438-0.162l0.381-0.107l0.109-0.107l0.162-0.057
		h0.381l0.488-0.27l0.219-0.109l0.324-0.055l0.164-0.162l0.271-0.109l0.328-0.16l0.322-0.271l0.326-0.162l0.438-0.271l0.326-0.164
		l0.219-0.162l0.381-0.107l0.164-0.162l0.324-0.271l0.707-0.652l0.271-0.219l0.27-0.219l0.383-0.326l0.219-0.217l0.381-0.383
		l0.381-0.27l0.162-0.271l0.814-0.762l0.221-0.271l0.324-0.383l0.219-0.271l0.217-0.271l0.107-0.217l0.219-0.219l0.217-0.271
		l0.271-0.324l0.162-0.383l0.326-0.27l0.219-0.381l0.326-0.438l0.217-0.27l0.057-0.164l0.107-0.162l0.271-0.436l0.217-0.271
		l0.109-0.219l0.271-0.488l0.053-0.326l0.055-0.164l0.107-0.107l0.107-0.271l0.107-0.221l0.162-0.381l0.164-0.162l0.324-0.867
		l0.111-0.273l0.16-0.707l0.107-0.598l0.217-1.309l0.057-0.436l0.164-0.381v-0.217l0.055-0.271v-0.762l0.107-0.381v-2.773
		l-0.107-0.381l0.107-0.326v-0.707L183.02,90.382z M179.756,94.407l-0.055,0.326l-0.055,0.326v0.813l-0.164,0.326l-0.109,0.709
		l-0.162,0.434l-0.055,0.439l-0.109,0.381l-0.055,0.217l-0.107,0.217l-0.055,0.326l-0.219,0.381l-0.162,0.221l-0.164,0.436
		l-0.271,0.545l-0.057,0.324l-0.217,0.271l-0.326,0.383l-0.27,0.434l-0.164,0.217l-0.217,0.439l-0.385,0.436l-0.434,0.543
		l-0.49,0.709l-0.217,0.271l-0.381,0.438l-0.219,0.271l-0.162,0.219l-0.271,0.326l-0.381,0.326l-0.219,0.27l-0.271,0.107
		l-0.979,1.033l-0.439,0.271l-0.381,0.383l-0.543,0.543l-0.217,0.105l-0.326,0.326l-0.814,0.488l-0.221,0.164l-0.16,0.164
		l-0.271,0.107l-0.219,0.164l-0.543,0.27l-0.604,0.271l-0.105,0.107l-0.438,0.057l-0.271,0.105l-0.6,0.221l-0.543,0.217
		l-0.381,0.107l-0.271,0.057h-0.707l-0.324,0.164l-0.326,0.055l-0.6,0.107l-0.326,0.055l-0.543,0.055l-0.326,0.057l-0.707,0.055
		l-0.545,0.109h-0.705h-1.58l-0.379-0.109h-0.707l-0.326-0.055l-0.271-0.057l-0.543-0.105l-0.383-0.057l-0.762-0.219l-0.381-0.105
		l-0.27-0.109l-0.438-0.162l-0.217-0.109l-1.088-0.381l-0.271-0.107l-0.219-0.107l-0.543-0.162l-0.217-0.164l-0.273-0.105
		l-0.543-0.271l-1.033-0.49l-0.326-0.217l-1.307-0.652l-0.813-0.488l-0.652-0.438l-0.27-0.105l-0.107-0.107l-0.273-0.109
		l-0.543-0.436l-0.324-0.162l-0.764-0.545l-0.545-0.381l-0.217-0.162l-0.545-0.438l-0.488-0.383l-0.598-0.598l-0.109-0.221
		l-0.436-0.436l-0.164-0.217l-0.217-0.271l-0.545-0.654l-0.16-0.322l-0.223-0.271l-0.215-0.221l-0.221-0.27l-0.162-0.326
		l-0.271-0.545l-0.219-0.438l-0.162-0.16l-0.057-0.326l-0.16-0.271l-0.109-0.271l-0.107-0.164l-0.055-0.322l-0.107-0.221
		l-0.109-0.105l-0.16-0.49l-0.383-1.195l-0.162-0.436v-0.219l-0.162-0.219l-0.057-0.381l-0.055-0.488l-0.055-0.271v-0.217
		l-0.164-0.381v-1.307l-0.055-0.271v-0.869l-0.107-0.271l0.107-0.273v-0.705l0.055-0.326v-0.436l0.107-0.326v-0.488l0.164-0.764
		V87.46l0.162-0.707v-0.27l0.055-0.49l0.164-0.217l0.107-0.6l0.219-0.979l0.107-0.381l0.217-0.652l0.057-0.271l0.271-0.543
		l0.164-0.6l0.162-0.219v-0.217l0.162-0.227l0.6-1.195l0.164-0.326l0.162-0.326l0.326-0.488l0.162-0.326l0.219-0.27l0.381-0.6
		l0.27-0.438l0.326-0.381l0.383-0.488l0.271-0.326l0.326-0.381l0.324-0.326l0.219-0.271l0.326-0.271l0.219-0.164l0.271-0.27
		l0.49-0.381l0.65-0.488l0.271-0.164l0.816-0.381l0.484-0.217l0.223-0.164l1.143-0.387l0.871-0.271l0.164-0.055l0.434-0.055
		l0.979-0.219l0.545-0.217h0.055v0.217v0.49l0.107,0.162l0.381,0.328l0.598,0.217h0.98l0.488-0.109l0.219-0.107l0.65-0.107
		l0.219-0.107l0.436-0.057l0.49-0.162h0.869l0.381-0.055h0.6l0.383,0.055h0.379l0.164-0.055l0.381,0.055h0.598l0.164-0.055
		l0.383,0.162h0.648l0.271,0.164h0.545l0.438,0.162h0.381l0.486,0.107l0.109,0.109h0.488l0.381,0.107l0.164,0.107l0.924,0.164
		l0.164,0.164l0.488,0.107l0.271,0.107l0.271,0.109l0.436,0.162l0.438,0.055l0.381,0.217l0.543,0.162l0.49,0.328l0.381,0.162
		l0.27,0.107l0.217,0.162l0.652,0.273l0.488,0.326l0.383,0.217l0.326,0.271l0.271,0.109l0.324,0.271l0.543,0.326l0.438,0.436
		l0.381,0.271l0.271,0.219l0.162,0.107l0.107,0.217l0.326,0.164l1.633,1.688l0.271,0.436l0.438,0.543l0.162,0.164l0.105,0.271
		l0.221,0.328l0.219,0.436l0.271,0.438l0.217,0.434l0.164,0.438l0.436,0.869l0.162,0.326l0.107,0.381l0.219,0.271l0.107,0.381
		l0.326,0.488l0.219,0.545l0.055,0.271l0.164,0.436v0.326l0.162,0.381v0.438l0.219,0.762l0.055,0.324l0.271,1.309v3.207
		L179.756,94.407z M147.176,76.243l-0.543-0.328h-0.65l-0.273,0.164l-0.381,0.436l-0.486,0.762l-0.219,0.6l-0.271,0.545
		l-0.271,0.324l-0.164,0.49v0.979l0.059,0.326l0.053,0.328v0.16l0.328,0.438l0.488,0.107l0.434-0.107h0.602l0.271-0.107l0.271-0.055
		l0.436-0.271l0.436-0.436l0.271-0.326l0.164-0.707l0.217-0.379l0.107-0.438l0.057-1.471l-0.164-0.543l-0.381-0.381L147.176,76.243z
		 M165.939,107.024l-1.033-0.324h-0.438l-0.543-0.057l-0.381-0.107l-0.488-0.109l-0.326-0.053l-1.414-0.27l-0.326-0.057
		l-0.271-0.057h-0.76l-0.381-0.107h-1.09l-1.086-0.217h-0.873l-0.27-0.059l-0.488-0.055l-0.271,0.109h-0.705l-0.49,0.107
		l-0.217,0.055l-0.164,0.164l-0.107,0.217v0.762v0.273l0.055,0.324l0.057,0.219l0.217,0.164l0.219,0.381l0.381,0.219l0.49,0.217
		l0.324,0.055h0.326l0.324,0.057l0.273,0.105h0.707l0.324,0.057h0.979h0.271h0.273h0.814l0.705,0.164h1.307l0.488-0.221l0.438,0.057
		l0.217,0.107l0.438,0.109l0.381,0.053l0.271,0.109h0.219l0.27,0.055l0.488,0.055h0.654l0.217-0.055l0.219-0.217l0.109-0.219
		l0.217-0.543v-0.709l-0.055-0.324l-0.162-0.273L165.939,107.024z M172.303,81.19l-0.324-0.055l-0.109-0.107l-0.162-0.107h-0.598
		l-0.217,0.107l-0.438,0.27l-0.219,0.271l-0.326,0.326l-0.109,0.217l-0.16,0.436l-0.057,0.166l-0.107,0.271l-0.107,0.49
		l-0.055,0.324l-0.057,0.326v0.924l0.057,0.488l0.105,0.438l0.057,0.162l0.27,0.109l0.383,0.053l0.271,0.164h0.707l0.381-0.107
		l0.436-0.436l0.219-0.271l0.271-0.162l0.326-0.326l0.381-0.436l0.271-0.816l0.055-1.033l-0.436-1.033l-0.381-0.381L172.303,81.19z
		 M221.361,77.331v29.693h-4.242c-14.143-16.262-17.676-20.395-17.676-20.395l-0.055-0.055c-0.221-0.164-0.271-0.273-0.271-0.273
		c-0.055-0.055-0.164-0.162-0.273-0.105c0,0-0.217,0-0.217,0.326v0.217v20.285h-4.842V77.331h3.916h0.055l18.059,20.611l0.055,0.055
		c0.057,0.107,0.109,0.164,0.164,0.217c0.055,0.057,0.162,0.164,0.271,0.109c0,0,0.217,0,0.217-0.326v-0.436v-20.23H221.361
		L221.361,77.331z"/>
</g>
</svg>
